# xmcd CD database file
#
# Track frame offsets:
#	150
#	26342
#	54120
#	75287
#	95865
#	115592
#	141702
#	164595
#	192835
#	231530
#	266055
#	286545
#
# Disc length: 4138 seconds
#
# Revision: 3
# Processed by: cddbd v1.5.1PL2 Copyright (c) Steve Scherf et al.
# Submitted via: CD2WAV32(JP) R3.22
#
DISCID=a110280c
DTITLE=BUDDY RICH - PLAYTIME
DYEAR=1956
DGENRE=Jazz
TTITLE0=Lulu's Back in Town
TTITLE1=Playtime
TTITLE2=Will You Still be Mine
TTITLE3=Fascinating Rhythm
TTITLE4=Makin' whoopee
TTITLE5=Marbels
TTITLE6=Misty
TTITLE7=Cheek to Cheek
TTITLE8=Four
TTITLE9=If I Were a Bell
TTITLE10=In a Prescribed Manner
TTITLE11=I don't Wanna be Kissed
EXTD=
EXTT0=
EXTT1=
EXTT2=
EXTT3=
EXTT4=
EXTT5=
EXTT6=
EXTT7=
EXTT8=
EXTT9=
EXTT10=
EXTT11=
PLAYORDER=
